<svg width="32" height="32" viewBox="0 0 32 32" xmlns="http://www.w3.org/2000/svg">
  <!-- Background -->
  <rect width="32" height="32" rx="4" fill="#0D9488"/>

  <!-- Left brace -->
  <path d="M8 10c0-1 1-1 1-1h1v-1h-1c-1 0-2 1-2 2v3c0 1-1 1-1 1v2s1 0 1 1v3c0 1 1 2 2 2h1v-1h-1s-1 0-1-1V10z" fill="#F59E0B"/>

  <!-- Right brace -->
  <path d="M24 10c0-1-1-1-1-1h-1v-1h1c1 0 2 1 2 2v3c0 1 1 1 1 1v2s-1 0-1 1v3c0 1-1 2-2 2h-1v-1h1s1 0 1-1V10z" fill="#F59E0B"/>

  <!-- Center dots -->
  <circle cx="14" cy="16" r="1.5" fill="#F59E0B"/>
  <circle cx="16" cy="14" r="1" fill="#F59E0B"/>
  <circle cx="18" cy="16" r="1.5" fill="#F59E0B"/>
</svg>